<svg xmlns="http://www.w3.org/2000/svg" xmlns:xlink="http://www.w3.org/1999/xlink" viewBox="0 0 300 400" width="300" height="400">
    <!-- Definitions for animations -->
    <defs>
        <!-- Eye blink animation -->
        <animate id="leftEyeBlink" class="eye-blink" attributeName="ry" from="10" to="1" dur="0.15s" begin="indefinite" fill="freeze" />
        <animate id="leftEyeOpen" class="eye-blink" attributeName="ry" from="1" to="10" dur="0.15s" begin="indefinite" fill="freeze" />
        
        <!-- Arm wave animations -->
        <animateTransform id="leftArmWave"
            attributeName="transform"
            type="rotate"
            from="0 80 240"
            to="-20 80 240"
            dur="0.4s"
            begin="indefinite"
            repeatCount="3"
            fill="freeze"
            additive="sum"
            calcMode="spline"
            keySplines="0.42 0 0.58 1; 0.42 0 0.58 1"
            keyTimes="0; 0.5; 1"
            values="0 80 240; -20 80 240; 0 80 240" />
            
        <animateTransform id="rightArmWave"
            attributeName="transform"
            type="rotate"
            from="0 220 240"
            to="20 220 240"
            dur="0.4s"
            begin="indefinite"
            repeatCount="3"
            fill="freeze"
            additive="sum"
            calcMode="spline"
            keySplines="0.42 0 0.58 1; 0.42 0 0.58 1"
            keyTimes="0; 0.5; 1"
            values="0 220 240; 20 220 240; 0 220 240" />
        
        <!-- Gradients for 3D effect -->
        <linearGradient id="headGradient" x1="0%" y1="0%" x2="100%" y2="100%">
            <stop offset="0%" stop-color="#FFFFFF" />
            <stop offset="70%" stop-color="#F0F0F0" />
            <stop offset="100%" stop-color="#E0E0E0" />
        </linearGradient>
        
        <linearGradient id="bodyGradient" x1="0%" y1="0%" x2="100%" y2="100%">
            <stop offset="0%" stop-color="#FFFFFF" />
            <stop offset="70%" stop-color="#F0F0F0" />
            <stop offset="100%" stop-color="#E0E0E0" />
        </linearGradient>
        
        <radialGradient id="eyeGradient" cx="50%" cy="50%" r="50%" fx="40%" fy="40%">
            <stop offset="0%" stop-color="#00BFFF" />
            <stop offset="85%" stop-color="#0080FF" />
            <stop offset="100%" stop-color="#0055FF" />
        </radialGradient>
        
        <filter id="glowFilter" x="-30%" y="-30%" width="160%" height="160%">
            <feGaussianBlur stdDeviation="2" result="blur" />
            <feComposite in="SourceGraphic" in2="blur" operator="over" />
        </filter>
    </defs>
    
    <!-- Background -->
    <rect width="300" height="400" fill="#f8f2ff" rx="20" ry="20" />
    
    <!-- Avatar body group -->
    <g id="avatar-body">
        <!-- Head - 3D white spherical head -->
        <circle cx="150" cy="120" r="70" fill="url(#headGradient)" stroke="#D0D0D0" stroke-width="1.5" />
        
        <!-- Head panel lines for tech look -->
        <path d="M150,50 C130,60 120,70 120,90" stroke="#E0E0E0" stroke-width="1" fill="none" />
        <path d="M150,50 C170,60 180,70 180,90" stroke="#E0E0E0" stroke-width="1" fill="none" />
        <path d="M100,120 C110,100 130,90 150,90" stroke="#E0E0E0" stroke-width="1" fill="none" />
        <path d="M200,120 C190,100 170,90 150,90" stroke="#E0E0E0" stroke-width="1" fill="none" />
        
        <!-- Eyes - Blue glowing tech eyes -->
        <g id="left-eye">
            <circle cx="125" cy="110" r="15" fill="#000000" />
            <circle cx="125" cy="110" r="12" fill="url(#eyeGradient)" filter="url(#glowFilter)" />
            <circle cx="125" cy="110" r="6" fill="#000000" />
            <circle cx="122" cy="107" r="3" fill="#FFFFFF" opacity="0.7" />
            <animate xlink:href="#leftEyeBlink" />
            <animate xlink:href="#leftEyeOpen" />
        </g>
        
        <g id="right-eye">
            <circle cx="175" cy="110" r="15" fill="#000000" />
            <circle cx="175" cy="110" r="12" fill="url(#eyeGradient)" filter="url(#glowFilter)" />
            <circle cx="175" cy="110" r="6" fill="#000000" />
            <circle cx="172" cy="107" r="3" fill="#FFFFFF" opacity="0.7" />
            <animate class="eye-blink" attributeName="ry" from="10" to="1" dur="0.15s" begin="indefinite" fill="freeze" />
            <animate class="eye-blink" attributeName="ry" from="1" to="10" dur="0.15s" begin="indefinite" fill="freeze" />
        </g>
        
        <!-- Mouth - Simple tech mouth -->
        <path id="mouth" d="M135,145 Q150,155 165,145" stroke="#333333" stroke-width="2" fill="none" />
        
        <!-- Antennas -->
        <line x1="135" y1="50" x2="135" y2="30" stroke="#0080FF" stroke-width="2" />
        <circle cx="135" cy="30" r="3" fill="#00BFFF" />
        
        <line x1="165" y1="50" x2="165" y2="30" stroke="#0080FF" stroke-width="2" />
        <circle cx="165" cy="30" r="3" fill="#00BFFF" />
        
        <!-- Headphones -->
        <path d="M80,110 C80,90 90,80 100,80" stroke="#0055FF" stroke-width="3" fill="none" />
        <rect x="70" y="100" width="10" height="20" rx="5" ry="5" fill="#0055FF" />
        <circle cx="75" cy="110" r="3" fill="#00BFFF" />
        
        <path d="M220,110 C220,90 210,80 200,80" stroke="#0055FF" stroke-width="3" fill="none" />
        <rect x="220" y="100" width="10" height="20" rx="5" ry="5" fill="#0055FF" />
        <circle cx="225" cy="110" r="3" fill="#00BFFF" />
        
        <!-- Neck -->
        <rect x="140" y="190" width="20" height="15" fill="#E0E0E0" />
        
        <!-- Body - White with blue accents -->
        <path d="M110,205 L110,300 L190,300 L190,205 Z" fill="url(#bodyGradient)" stroke="#D0D0D0" stroke-width="1.5" />
        
        <!-- Body details - Blue accent in center -->
        <rect x="135" y="220" width="30" height="30" rx="5" ry="5" fill="#0080FF" />
        <circle cx="150" cy="235" r="10" fill="#00BFFF" />
        <circle cx="150" cy="235" r="5" fill="#FFFFFF" opacity="0.5" />
        
        <!-- Arms -->
        <g id="left-arm">
            <!-- Upper arm -->
            <path d="M110,220 L80,250" stroke="#F0F0F0" stroke-width="15" stroke-linecap="round" fill="none">
                <animateTransform xlink:href="#leftArmWave" />
            </path>
            <!-- Joint -->
            <circle cx="80" cy="250" r="8" fill="#0080FF" />
            <!-- Lower arm -->
            <path d="M80,250 L60,290" stroke="#F0F0F0" stroke-width="12" stroke-linecap="round" fill="none" />
            <!-- Hand -->
            <circle cx="60" cy="290" r="10" fill="#F0F0F0" stroke="#D0D0D0" stroke-width="1" />
            <!-- Blue accent on hand -->
            <circle cx="60" cy="290" r="4" fill="#00BFFF" />
        </g>
        
        <g id="right-arm">
            <!-- Upper arm -->
            <path d="M190,220 L220,250" stroke="#F0F0F0" stroke-width="15" stroke-linecap="round" fill="none">
                <animateTransform xlink:href="#rightArmWave" />
            </path>
            <!-- Joint -->
            <circle cx="220" cy="250" r="8" fill="#0080FF" />
            <!-- Lower arm -->
            <path d="M220,250 L240,290" stroke="#F0F0F0" stroke-width="12" stroke-linecap="round" fill="none" />
            <!-- Hand -->
            <circle cx="240" cy="290" r="10" fill="#F0F0F0" stroke="#D0D0D0" stroke-width="1" />
            <!-- Blue accent on hand -->
            <circle cx="240" cy="290" r="4" fill="#00BFFF" />
        </g>
        
        <!-- Legs -->
        <g id="left-leg">
            <!-- Upper leg -->
            <path d="M125,300 L115,340" stroke="#F0F0F0" stroke-width="18" stroke-linecap="round" fill="none" />
            <!-- Joint -->
            <circle cx="115" cy="340" r="8" fill="#0080FF" />
            <!-- Lower leg -->
            <path d="M115,340 L115,370" stroke="#F0F0F0" stroke-width="15" stroke-linecap="round" fill="none" />
            <!-- Foot -->
            <ellipse cx="115" cy="380" rx="15" ry="10" fill="#F0F0F0" stroke="#D0D0D0" stroke-width="1" />
            <!-- Blue accent on foot -->
            <path d="M100,380 L130,380" stroke="#0080FF" stroke-width="2" />
        </g>
        
        <g id="right-leg">
            <!-- Upper leg -->
            <path d="M175,300 L185,340" stroke="#F0F0F0" stroke-width="18" stroke-linecap="round" fill="none" />
            <!-- Joint -->
            <circle cx="185" cy="340" r="8" fill="#0080FF" />
            <!-- Lower leg -->
            <path d="M185,340 L185,370" stroke="#F0F0F0" stroke-width="15" stroke-linecap="round" fill="none" />
            <!-- Foot -->
            <ellipse cx="185" cy="380" rx="15" ry="10" fill="#F0F0F0" stroke="#D0D0D0" stroke-width="1" />
            <!-- Blue accent on foot -->
            <path d="M170,380 L200,380" stroke="#0080FF" stroke-width="2" />
        </g>
    </g>
</svg>